<?xml version="1.0" standalone="no"?>
<!DOCTYPE svg PUBLIC "-//W3C//DTD SVG 20010904//EN"
 "http://www.w3.org/TR/2001/REC-SVG-20010904/DTD/svg10.dtd">
<svg version="1.0" xmlns="http://www.w3.org/2000/svg"
 width="100.000000pt" height="70.000000pt" viewBox="0 0 100.000000 70.000000"
 preserveAspectRatio="xMidYMid meet">
<metadata>
Created by potrace 1.16, written by Peter Selinger 2001-2019
</metadata>
<g transform="translate(0.000000,70.000000) scale(0.005200,-0.005091)"
fill="#000000" stroke="none">
<path d="M9520 12032 c-36 -22 -144 -84 -240 -139 -372 -214 -1020 -587 -1115
-643 -90 -52 -1507 -869 -2640 -1521 l-430 -247 0 -2619 0 -2618 2243 -1282
c1234 -706 2247 -1283 2252 -1283 8 0 384 216 1795 1030 467 270 1280 738
1415 815 98 56 1329 764 1337 769 1 1 -9 1173 -21 2605 -22 2543 -23 2604 -42
2618 -19 14 -533 308 -2874 1646 -712 406 -1361 777 -1441 823 -80 46 -152 84
-160 84 -8 0 -43 -17 -79 -38z m46 -1177 c1 -613 -1 -1115 -5 -1115 -3 0 -21
39 -40 86 -70 173 -203 341 -339 428 -147 94 -255 123 -510 136 -466 24 -884
121 -1195 276 -61 31 -89 41 -91 32 -3 -7 -7 -56 -10 -109 -11 -180 -60 -403
-140 -645 -58 -174 -112 -298 -208 -483 -43 -85 -94 -195 -111 -245 -30 -86
-31 -99 -32 -241 0 -130 3 -160 23 -225 34 -108 94 -224 168 -323 35 -48 61
-87 59 -87 -5 0 -441 251 -1718 988 -173 100 -215 128 -205 138 7 6 209 124
448 261 417 240 1035 596 2115 1218 857 494 999 576 1390 803 209 121 385 221
390 221 7 1 10 -377 11 -1114z m1496 307 c777 -444 1752 -1001 2165 -1237 414
-237 753 -433 753 -437 0 -3 -246 -150 -547 -326 -302 -176 -721 -422 -933
-546 -211 -124 -386 -224 -388 -222 -1 2 17 33 42 68 111 159 168 328 168 503
1 164 -22 238 -147 490 -57 116 -122 255 -143 310 -110 279 -185 588 -208 853
-3 45 -10 82 -13 82 -4 0 -33 -13 -64 -29 -163 -83 -419 -168 -653 -215 -184
-38 -328 -55 -544 -66 -208 -10 -312 -29 -415 -74 -195 -87 -358 -263 -450
-488 -19 -45 -35 -89 -35 -95 0 -7 -4 -13 -10 -13 -7 0 -10 156 -10 448 0 474
12 1802 16 1802 1 0 638 -364 1416 -808z m-3368 -646 c194 -70 437 -127 686
-160 25 -4 146 -13 270 -21 238 -15 305 -27 407 -75 102 -47 228 -143 255
-194 7 -12 -7 -4 -33 19 -92 85 -205 147 -324 179 -33 9 -136 21 -230 26 -431
25 -661 67 -1030 186 -93 31 -175 57 -182 59 -29 9 -44 -24 -73 -170 -76 -377
-165 -630 -351 -995 -104 -204 -129 -288 -131 -430 -1 -52 2 -115 5 -140 l6
-45 -16 45 c-11 32 -16 81 -17 165 0 161 19 225 143 472 213 426 289 670 357
1150 l5 32 66 -30 c37 -16 121 -49 187 -73z m4094 -58 c26 -183 66 -350 127
-535 59 -176 107 -287 215 -503 107 -211 130 -282 137 -415 6 -101 -13 -235
-38 -273 -8 -14 -9 -11 -4 11 29 140 22 297 -20 422 -14 41 -58 139 -99 217
-167 319 -266 604 -341 979 -15 73 -31 142 -36 152 -14 26 -41 22 -189 -28
-347 -117 -601 -166 -999 -190 -259 -16 -324 -29 -446 -89 -38 -20 -99 -59
-135 -87 l-65 -52 45 47 c134 142 287 201 555 216 229 13 293 19 445 41 235
35 575 131 750 212 30 14 60 26 66 26 6 1 19 -62 32 -151z m-4128 -23 c349
-117 594 -164 998 -190 131 -8 252 -21 287 -31 130 -35 271 -124 359 -228 56
-65 60 -83 7 -28 -114 117 -254 194 -406 223 -27 5 -137 14 -244 19 -306 16
-495 46 -831 130 -85 22 -174 42 -197 46 -70 11 -78 -2 -138 -217 -89 -321
-172 -537 -321 -829 -112 -221 -134 -294 -134 -449 0 -59 7 -134 15 -170 9
-35 14 -66 12 -68 -2 -2 -14 27 -27 64 -17 51 -24 99 -28 189 -6 173 12 238
137 484 175 345 278 646 347 1008 10 50 20 92 24 92 3 0 66 -20 140 -45z
m4040 -12 c84 -422 164 -662 336 -1012 72 -145 123 -262 135 -310 23 -90 27
-229 9 -316 -12 -61 -49 -169 -55 -163 -2 2 5 39 16 83 25 108 25 247 -1 351
-13 51 -62 164 -139 324 -151 310 -193 420 -298 788 -48 170 -69 212 -106 212
-13 0 -115 -23 -227 -50 -345 -85 -537 -114 -851 -130 -317 -17 -401 -47 -611
-220 l-43 -35 30 39 c79 103 265 213 410 240 44 8 145 18 225 21 352 15 652
70 995 183 83 28 153 50 157 51 4 1 12 -25 18 -56z m-3873 -137 c345 -85 499
-109 843 -131 249 -15 310 -28 435 -93 72 -38 219 -171 245 -222 7 -15 -16 2
-56 42 -104 100 -204 159 -332 193 -32 9 -138 20 -242 25 -288 15 -452 35
-778 95 -73 14 -164 25 -202 25 -64 0 -70 -2 -95 -32 -31 -37 -24 -20 -125
-294 -103 -278 -154 -395 -257 -594 -99 -190 -128 -269 -144 -386 -12 -90 -2
-209 26 -300 20 -67 1 -41 -23 31 -51 152 -54 312 -7 450 14 43 59 141 100
219 134 256 220 475 310 791 31 110 61 208 66 218 7 11 17 16 32 12 12 -2 104
-25 204 -49z m3802 -18 c11 -35 34 -115 52 -178 77 -277 164 -501 298 -768
103 -204 118 -246 134 -360 13 -99 0 -212 -38 -323 -35 -103 -45 -104 -19 -2
30 116 32 259 4 369 -12 51 -46 132 -96 229 -130 254 -192 398 -301 705 -30
85 -69 181 -85 212 -49 93 -46 93 -468 19 -226 -39 -410 -59 -640 -70 -144 -7
-201 -14 -255 -31 -124 -39 -221 -97 -324 -194 -40 -37 -42 -38 -23 -9 39 56
160 159 229 196 129 67 176 78 425 93 350 21 569 55 903 143 61 16 127 30 147
30 36 1 37 0 57 -61z m-3764 -97 c61 -11 174 -31 253 -45 180 -32 377 -53 607
-65 205 -11 291 -32 404 -98 67 -40 190 -153 231 -213 19 -28 10 -22 -42 27
-84 77 -139 115 -231 158 -99 47 -186 62 -437 74 -118 6 -309 22 -425 35 -314
37 -346 39 -411 27 -94 -17 -123 -58 -262 -381 -93 -214 -154 -343 -250 -526
-88 -167 -107 -239 -106 -399 1 -85 7 -141 21 -192 25 -94 12 -84 -21 15 -52
158 -57 302 -15 439 11 36 67 156 123 267 102 200 178 381 276 656 77 213 93
240 144 240 17 0 81 -9 141 -19z m3647 8 c24 -13 49 -67 123 -274 90 -252 159
-415 265 -625 119 -234 140 -304 140 -451 0 -85 -5 -125 -25 -194 -14 -48 -32
-99 -41 -114 l-15 -26 6 25 c28 123 35 175 35 265 0 147 -26 227 -154 476 -57
112 -140 288 -185 390 -139 324 -175 387 -242 413 -55 22 -113 20 -422 -14
-148 -17 -367 -35 -486 -40 -167 -7 -233 -14 -291 -30 -117 -33 -224 -94 -312
-179 -43 -40 -78 -69 -78 -63 0 21 153 172 213 210 135 83 228 108 442 117
267 11 427 32 895 115 67 11 109 11 132 -1z m-3272 -168 c96 -12 263 -26 370
-31 107 -6 231 -15 276 -20 177 -22 341 -119 475 -282 l44 -53 -55 48 c-196
171 -371 237 -630 237 -54 0 -214 7 -356 16 -390 24 -483 12 -566 -73 -63 -65
-97 -123 -228 -379 -62 -120 -141 -271 -175 -334 -35 -63 -76 -149 -91 -190
-26 -70 -28 -86 -28 -230 -1 -85 2 -177 6 -205 7 -48 7 -49 -7 -20 -49 105
-65 332 -31 453 18 69 36 107 144 312 39 74 121 250 182 390 110 251 150 329
191 366 39 35 145 34 479 -5z m3143 30 c22 -5 50 -19 63 -32 32 -30 87 -140
185 -369 46 -107 119 -265 163 -350 129 -251 137 -270 158 -354 28 -110 21
-275 -16 -391 -14 -44 -31 -87 -37 -95 -9 -12 -10 -12 -5 4 13 39 36 204 36
258 0 126 -44 275 -123 414 -24 44 -99 188 -167 322 -239 473 -255 487 -550
487 -213 0 -713 -22 -810 -36 -137 -20 -279 -88 -393 -188 -32 -28 -61 -51
-64 -51 -13 0 69 90 131 141 155 131 265 165 581 179 121 5 283 17 360 26 77
8 192 21 255 29 142 16 185 17 233 6z m-2803 -150 c140 -6 288 -16 327 -21 92
-12 210 -58 290 -113 67 -45 197 -157 190 -163 -2 -2 -46 24 -98 59 -52 35
-128 77 -169 94 -135 56 -193 63 -562 64 -503 1 -586 -18 -724 -162 -33 -35
-85 -102 -116 -149 -99 -151 -312 -533 -339 -611 -38 -106 -53 -221 -46 -353
6 -127 -4 -116 -29 28 -35 195 -4 346 110 556 35 63 115 216 178 340 184 361
220 408 333 437 55 14 225 12 655 -6z m2706 4 c54 -16 107 -64 163 -148 26
-39 274 -510 383 -729 68 -136 86 -316 48 -497 -10 -51 -21 -96 -24 -99 -3 -2
-3 53 1 124 6 146 -10 264 -53 371 -32 79 -256 477 -336 597 -79 117 -171 209
-241 242 -113 51 -180 58 -577 58 -316 1 -375 -1 -440 -17 -99 -23 -209 -72
-300 -133 -106 -71 -112 -72 -51 -14 116 111 230 178 358 211 59 15 140 21
362 30 157 6 288 13 290 15 2 2 86 4 186 4 130 0 195 -4 231 -15z m-186 -120
c148 -33 239 -105 353 -277 96 -145 307 -525 337 -606 44 -121 62 -300 41
-407 -10 -51 -16 -34 -30 86 -23 202 -82 343 -252 598 -289 434 -475 531
-1049 548 -279 8 -383 -11 -588 -107 -56 -27 -100 -45 -98 -41 3 4 39 32 81
60 128 89 278 148 415 165 19 2 188 3 375 1 273 -3 355 -6 415 -20z m-2095 -8
c88 -26 216 -89 306 -153 113 -79 110 -79 -46 -5 -49 23 -128 55 -175 69 -84
27 -89 27 -360 26 -215 0 -296 -4 -370 -17 -241 -44 -352 -99 -496 -242 -104
-104 -172 -193 -289 -379 -124 -199 -179 -356 -192 -544 -3 -51 -9 -95 -14
-97 -11 -8 -22 179 -15 257 17 166 39 221 221 539 248 433 328 514 540 553
123 23 806 17 890 -7z m1765 -83 c247 -31 381 -88 521 -222 107 -102 184 -199
292 -372 99 -157 139 -241 172 -357 32 -111 29 -155 -4 -63 -119 329 -390 629
-717 793 -354 178 -787 213 -1151 94 -82 -27 -86 -20 -10 19 125 63 262 107
382 124 79 11 371 2 515 -16z m-1718 -12 c84 -23 232 -82 224 -89 -2 -3 -36 2
-75 11 -305 69 -716 15 -1011 -134 -95 -48 -242 -149 -234 -162 4 -6 3 -8 -4
-4 -11 6 -127 -87 -167 -135 -11 -13 16 8 60 46 l80 70 -90 -96 c-244 -261
-377 -543 -416 -881 -7 -60 -16 -108 -20 -108 -15 0 -2 380 16 464 36 172 120
339 295 588 83 119 236 272 320 321 165 95 407 138 760 133 150 -3 199 -7 262
-24z m129 -131 c148 -30 386 -118 377 -139 -1 -5 -34 -33 -73 -62 l-70 -53
-107 27 c-479 120 -962 -15 -1305 -366 -157 -161 -266 -353 -332 -586 l-26
-93 -87 -39 -88 -39 0 55 c0 31 9 102 21 157 125 620 604 1070 1229 1157 101
14 351 4 461 -19z m1373 14 c618 -82 1115 -562 1221 -1179 19 -113 20 -176 1
-176 -7 0 -47 16 -89 35 l-75 35 -12 52 c-58 246 -199 491 -383 664 -342 324
-802 443 -1264 327 -96 -24 -104 -24 -125 -9 -13 9 -47 33 -75 53 -29 20 -53
40 -53 44 0 11 86 50 191 87 213 75 434 98 663 67z m3487 -2061 c9 -1055 19
-2188 23 -2516 3 -329 4 -598 2 -598 -2 0 -62 33 -133 73 -70 41 -281 161
-468 267 -187 106 -437 248 -555 315 -118 67 -327 186 -465 264 -137 79 -253
146 -257 150 -5 4 47 5 115 3 272 -9 480 70 648 245 41 43 95 110 119 148 182
285 288 423 475 614 145 149 279 264 403 349 45 31 79 59 75 62 -5 4 -46 33
-93 66 -264 183 -555 491 -758 799 -47 72 -101 155 -121 185 -97 146 -248 262
-418 321 l-98 34 -195 -1 c-162 -1 -208 -4 -273 -21 -43 -11 -75 -17 -70 -13
4 4 224 133 488 288 638 372 1011 591 1290 755 127 75 235 134 240 133 7 -2
16 -665 26 -1922z m-8018 1404 c469 -270 907 -523 974 -562 67 -38 121 -72
119 -74 -3 -2 -31 2 -63 9 -90 20 -333 17 -418 -5 -227 -60 -377 -174 -522
-396 -41 -63 -93 -142 -116 -175 -183 -270 -492 -588 -733 -755 -40 -28 -79
-53 -88 -56 -15 -6 -16 105 -16 1250 0 691 3 1256 6 1256 3 0 389 -221 857
-492z m3197 392 c52 -10 107 -23 122 -29 l27 -10 -63 -61 -63 -60 -69 10
c-211 30 -462 -9 -673 -106 -260 -120 -498 -365 -607 -627 -14 -34 -29 -65
-33 -70 -11 -11 -153 -49 -159 -42 -3 3 4 40 17 83 129 441 483 783 931 898
182 47 376 52 570 14z m1318 0 c137 -27 211 -53 337 -115 268 -133 493 -371
611 -647 45 -107 81 -224 72 -234 -4 -3 -26 0 -49 6 -24 6 -61 16 -81 21 -21
5 -38 16 -38 24 0 28 -111 233 -168 310 -260 349 -710 542 -1128 484 l-77 -10
-58 57 c-33 32 -59 62 -59 65 0 7 143 42 210 52 14 3 94 5 178 6 118 1 176 -4
250 -19z m-1030 -90 c33 -15 52 -29 52 -40 0 -9 -23 -32 -51 -52 l-50 -35 -70
21 c-38 11 -69 23 -69 27 0 13 114 109 125 105 5 -2 34 -14 63 -26z m401 -44
c19 -20 33 -37 30 -39 -2 -2 -33 -14 -68 -25 l-64 -22 -63 43 c-72 49 -71 53
21 91 58 23 60 24 85 6 14 -10 40 -34 59 -54z m-693 -49 c3 -3 -11 -28 -31
-55 l-37 -49 -142 -6 c-152 -6 -232 -22 -372 -76 -238 -92 -466 -298 -595
-538 -14 -26 -23 -31 -74 -37 -32 -3 -60 -4 -63 -2 -2 3 16 47 41 98 143 293
394 514 703 617 142 48 237 61 412 57 84 -2 155 -6 158 -9z m1284 -16 c354
-81 646 -311 811 -638 29 -57 49 -106 46 -109 -3 -3 -31 -2 -62 1 -50 7 -60
11 -74 38 -118 216 -311 404 -515 501 -168 80 -319 116 -490 116 l-101 1 -32
42 c-17 23 -32 47 -33 52 -3 30 313 28 450 -4z m-1408 -173 c-32 -52 -44 -63
-68 -65 -191 -17 -385 -84 -534 -186 -67 -46 -213 -191 -256 -253 l-37 -54
-69 0 c-37 0 -68 4 -68 8 0 13 68 123 111 179 58 74 183 191 259 241 94 62
212 117 315 147 120 35 172 42 287 44 l98 1 -38 -62z m1380 28 c207 -53 375
-150 529 -305 59 -60 115 -128 147 -181 29 -46 52 -88 52 -92 0 -4 -31 -8 -68
-8 l-69 0 -37 54 c-47 69 -193 209 -269 259 -140 93 -330 162 -479 174 l-68 6
-35 57 c-19 32 -35 61 -35 65 0 17 236 -4 332 -29z m-1432 -109 c0 -1 -20 -47
-44 -102 l-43 -99 -84 -26 c-142 -45 -244 -103 -370 -211 l-68 -59 -106 13
-107 12 44 60 c155 209 419 365 686 404 66 10 92 12 92 8z m157 -3 c20 -6 18
-11 -38 -95 -58 -87 -61 -89 -99 -89 -46 0 -46 -2 15 119 33 66 37 71 68 71
17 0 42 -3 54 -6z m999 -84 c24 -47 43 -88 43 -92 1 -5 -17 -8 -38 -8 -39 0
-41 2 -96 86 -62 96 -61 106 9 102 39 -3 40 -4 82 -88z m172 69 c143 -28 298
-97 425 -191 70 -52 200 -185 229 -236 l18 -29 -111 -13 -110 -12 -62 59
c-106 101 -218 166 -366 213 l-84 26 -39 90 c-22 49 -42 95 -45 102 -6 15 33
12 145 -9z m-1001 -13 c3 -2 -24 -38 -59 -80 -52 -63 -68 -75 -93 -75 -58 -1
-58 10 -2 93 l52 78 49 -6 c27 -3 51 -7 53 -10z m640 -3 c6 -10 30 -44 52 -77
22 -32 38 -62 35 -67 -3 -5 -22 -9 -42 -9 -34 1 -43 8 -99 75 -35 41 -63 77
-63 79 0 6 36 13 75 15 19 0 35 -6 42 -16z m-192 -110 c36 -31 62 -59 58 -64
-4 -4 -24 -11 -43 -16 -33 -9 -40 -6 -108 43 l-73 53 38 20 c21 11 43 20 50
21 6 0 41 -25 78 -57z m-725 -61 c0 -13 -68 -165 -77 -171 -4 -3 -9 -17 -9
-31 -1 -14 -12 -72 -24 -130 -12 -58 -24 -115 -26 -128 -3 -13 -10 -22 -17
-19 -14 4 -12 78 5 200 9 65 14 80 32 87 18 7 18 9 3 9 -13 1 -17 7 -13 19 37
130 48 161 59 165 19 8 67 8 67 -1z m140 3 c0 -3 -22 -40 -48 -83 -68 -109
-136 -288 -157 -410 -10 -63 -31 -48 -27 19 3 59 46 248 62 280 6 10 21 19 33
20 l22 1 -22 6 c-22 7 -22 8 17 90 l39 82 40 0 c23 0 41 -2 41 -5z m922 -75
c20 -41 37 -78 37 -82 1 -5 -9 -9 -21 -9 l-23 -2 23 -4 c12 -2 27 -13 32 -23
17 -31 59 -221 62 -279 5 -87 -15 -69 -40 35 -30 127 -84 260 -144 357 -26 43
-48 81 -48 83 0 3 19 4 43 2 42 -3 42 -4 79 -78z m-1232 -43 c-12 -45 -26 -87
-31 -93 -5 -6 -6 -13 -3 -16 4 -5 -15 -208 -21 -216 -1 -1 -40 16 -87 38 -47
22 -91 40 -97 40 -19 0 -12 18 17 39 15 11 24 21 21 21 -3 0 -19 -11 -37 -23
l-32 -24 -95 26 c-52 14 -95 29 -95 33 0 10 125 115 172 144 105 67 299 144
306 123 2 -6 -6 -47 -18 -92z m1049 7 c18 -24 30 -44 27 -44 -3 0 4 -10 15
-21 49 -49 167 -354 157 -405 -7 -40 -26 -20 -47 51 -31 99 -81 202 -136 282
-25 35 -45 66 -45 68 0 2 8 6 18 8 12 3 10 5 -7 6 -28 1 -145 117 -129 127 5
3 22 10 36 14 31 9 59 -13 111 -86z m539 26 c45 -22 104 -54 130 -71 58 -40
162 -129 162 -140 0 -4 -24 -13 -52 -19 -29 -7 -73 -19 -96 -27 -40 -13 -46
-13 -65 4 -20 16 -20 16 -8 0 8 -9 12 -19 10 -21 -2 -2 -42 -20 -89 -40 -47
-21 -90 -39 -96 -42 -11 -5 -39 199 -29 215 3 5 2 11 -2 13 -7 3 -54 172 -53
190 0 12 102 -22 188 -62z m-1060 46 c12 -12 -111 -126 -138 -127 -17 -1 -19
-3 -7 -6 9 -2 17 -6 17 -8 0 -2 -20 -33 -45 -68 -55 -79 -106 -185 -136 -283
-22 -70 -40 -89 -47 -50 -10 52 109 357 158 406 11 11 17 20 14 20 -8 0 39 64
75 103 22 25 32 28 64 24 21 -3 41 -8 45 -11z m77 -30 c30 -13 35 -20 35 -49
0 -28 -7 -39 -38 -60 -20 -15 -46 -25 -57 -23 -11 2 -14 1 -7 -1 6 -3 12 -7
12 -10 0 -3 -30 -37 -66 -75 -92 -98 -173 -231 -204 -335 -7 -24 -16 -43 -20
-43 -4 0 -17 11 -29 24 l-23 25 22 73 c25 84 104 241 155 311 29 38 41 47 68
48 23 1 26 3 10 6 -13 2 -23 7 -23 11 0 12 104 112 117 112 8 0 29 -7 48 -14z
m322 -38 c56 -55 61 -64 41 -71 -7 -2 -5 -3 5 -1 46 6 183 -234 227 -398 12
-46 11 -49 -11 -68 -13 -10 -26 -19 -29 -20 -3 0 -17 33 -32 73 -41 107 -107
213 -187 299 -39 42 -71 78 -71 81 0 3 6 7 13 10 6 2 3 3 -9 1 -13 -2 -45 14
-84 43 l-63 47 59 28 c32 15 66 28 74 28 8 0 38 -23 67 -52z m-102 -107 c-3
-9 0 -11 10 -7 35 13 183 -168 251 -308 58 -118 64 -153 33 -180 -39 -34 -136
-153 -190 -232 -67 -100 -143 -258 -182 -379 l-32 -100 -3 555 c-1 305 0 561
3 568 11 29 184 -118 263 -223 16 -21 20 -23 12 -7 -19 38 -146 167 -205 208
-30 20 -55 40 -55 44 0 4 18 15 40 25 22 10 38 20 36 22 -2 3 -22 -5 -44 -16
-22 -11 -42 -17 -46 -14 -8 8 -8 118 0 126 11 11 114 -67 109 -82z m-525 45
c0 -3 -18 -37 -39 -78 -41 -76 -93 -216 -105 -280 -4 -21 -12 -38 -18 -38 -28
0 33 243 88 353 19 37 30 47 49 47 14 0 25 -2 25 -4z m905 -70 c53 -114 103
-326 78 -326 -5 0 -21 44 -36 98 -23 78 -59 165 -125 295 -2 4 8 7 23 7 23 0
31 -9 60 -74z m-565 34 c0 -23 -4 -28 -17 -24 -17 5 -17 5 0 -6 24 -16 22 -68
-5 -99 -13 -14 -16 -20 -8 -13 8 6 18 12 22 12 4 0 8 -199 8 -442 l0 -442 -46
94 c-74 152 -208 343 -293 416 -20 17 -23 26 -17 56 8 43 75 183 118 246 49
72 159 182 181 182 11 0 17 3 14 7 -8 7 21 43 35 43 4 0 8 -13 8 -30z m-1227
-135 c31 -4 57 -9 57 -13 0 -4 -10 -20 -23 -35 -21 -26 -28 -28 -124 -34 -57
-3 -103 -3 -103 1 0 9 30 67 42 83 6 8 26 11 51 8 23 -3 68 -7 100 -10z m2767
-35 c11 -21 20 -43 20 -47 0 -4 -44 -7 -97 -5 -96 3 -99 4 -125 35 -16 17 -28
35 -28 38 0 10 46 15 137 17 l73 2 20 -40z m-3276 -68 l-16 -71 -65 -31 c-36
-16 -67 -30 -69 -30 -6 0 -2 101 5 135 6 27 13 32 81 51 41 12 76 21 78 19 1
-1 -5 -34 -14 -73z m3689 48 l64 -20 7 -46 c14 -108 4 -119 -78 -81 -51 24
-55 28 -65 73 -6 27 -13 59 -17 72 -8 28 4 28 89 2z m-4838 -30 c-11 -4 -51
-20 -88 -35 -136 -55 -269 -164 -348 -285 -280 -430 -426 -604 -741 -887 -76
-68 -128 -122 -128 -133 0 -10 42 -54 103 -106 275 -237 522 -525 704 -819
132 -214 258 -326 453 -401 l35 -14 -35 6 c-101 17 -250 104 -345 201 -57 58
-65 69 -210 291 -201 308 -515 642 -773 821 l-32 23 107 81 c135 102 431 396
542 540 46 59 121 165 166 235 46 70 107 160 137 201 89 125 219 218 373 267
68 22 123 32 80 14z m5926 -16 c91 -27 205 -92 279 -161 53 -49 102 -114 204
-267 73 -110 171 -248 218 -306 160 -199 407 -439 561 -546 31 -21 56 -43 56
-49 1 -5 -14 -20 -33 -32 -73 -47 -236 -186 -340 -289 -162 -161 -302 -335
-452 -562 -141 -212 -208 -289 -306 -352 -73 -48 -188 -96 -248 -104 l-45 -6
55 18 c129 44 266 133 343 225 24 29 96 131 160 228 63 97 153 223 199 280
103 129 306 338 461 476 64 57 117 111 117 118 0 8 -64 72 -142 143 -293 264
-483 489 -671 791 -120 194 -248 311 -412 378 -87 36 -89 42 -4 17z m-5826
-30 c-141 -41 -240 -94 -335 -181 -60 -56 -91 -97 -212 -283 -145 -226 -269
-377 -510 -628 -87 -89 -161 -174 -164 -188 -8 -32 11 -56 198 -251 182 -190
330 -373 445 -548 47 -71 106 -160 131 -198 99 -150 246 -254 442 -313 l45
-13 -50 6 c-64 8 -175 45 -234 80 -134 77 -203 152 -334 358 -192 303 -408
549 -722 823 l-50 44 65 56 c311 272 548 545 730 842 130 211 256 319 440 378
70 23 101 29 140 30 14 0 4 -6 -25 -14z m5745 -11 c30 -8 91 -34 135 -56 97
-50 230 -177 290 -277 184 -309 425 -597 714 -853 l113 -101 -33 -30 c-363
-317 -534 -513 -766 -874 -41 -63 -92 -136 -115 -164 -86 -101 -229 -187 -369
-222 -102 -25 -124 -18 -29 10 196 58 329 169 474 399 152 240 295 421 501
635 189 196 205 216 205 249 0 25 -27 59 -164 203 -260 274 -369 411 -528 660
-50 79 -111 167 -135 196 -85 100 -211 180 -358 228 -51 17 -59 22 -30 18 22
-4 65 -13 95 -21z m-4210 12 c0 -2 -7 -19 -16 -38 -15 -30 -21 -34 -82 -45
-37 -6 -82 -14 -100 -18 l-33 -7 18 49 c13 35 25 50 43 55 28 8 170 11 170 4z
m208 -10 c3 -2 -1 -13 -9 -22 -11 -14 -9 -14 9 2 23 19 24 19 105 -2 124 -32
247 -82 247 -100 0 -10 -6 -14 -17 -10 -163 47 -210 58 -273 67 -41 5 -121 10
-177 9 -57 0 -103 3 -103 6 0 3 7 20 16 37 l16 31 91 -7 c50 -3 92 -8 95 -11z
m2427 -20 c11 -19 17 -36 15 -37 -3 -2 -49 -1 -102 2 -53 3 -103 2 -110 -2 -7
-3 -52 -11 -100 -17 -48 -6 -126 -24 -173 -39 -76 -25 -85 -26 -85 -11 0 34
306 132 342 110 14 -9 17 -8 16 1 -3 14 49 24 133 26 43 2 47 0 64 -33z m160
27 c36 -7 41 -12 57 -55 20 -55 26 -53 -94 -30 -88 17 -90 18 -108 55 l-18 38
61 -1 c34 0 80 -3 102 -7z m-4252 -47 c-218 -56 -354 -166 -507 -410 -99 -157
-222 -326 -334 -459 -41 -49 -113 -135 -160 -190 -47 -56 -93 -120 -104 -143
-30 -68 -27 -73 207 -353 158 -189 291 -368 389 -525 152 -244 257 -334 476
-407 77 -26 81 -28 35 -23 -70 9 -204 56 -272 96 -96 57 -189 159 -290 319
-158 250 -268 388 -531 667 -90 95 -162 180 -160 188 2 7 69 83 150 168 274
287 374 413 571 719 113 175 211 262 368 325 70 28 168 51 219 52 23 0 4 -8
-57 -24z m5540 9 c40 -9 113 -35 162 -59 141 -68 228 -153 335 -325 161 -261
308 -444 577 -722 73 -75 133 -141 133 -148 0 -6 -69 -84 -154 -173 -263 -278
-391 -437 -548 -684 -44 -70 -98 -148 -119 -172 -57 -64 -151 -136 -224 -171
-74 -35 -202 -70 -254 -69 -30 0 -23 3 36 19 222 58 359 165 501 393 110 176
231 340 413 557 172 207 209 260 209 303 0 36 -42 95 -216 303 -173 208 -294
372 -403 548 -142 228 -272 331 -506 399 -68 20 -31 21 58 1z m-600 -81 c-8
-123 -3 -119 -81 -67 -37 26 -66 49 -66 53 2 10 138 90 145 85 4 -2 5 -34 2
-71z m527 42 c195 -47 344 -154 449 -320 165 -262 261 -394 451 -620 161 -192
200 -246 200 -277 0 -32 -32 -75 -199 -273 -168 -200 -284 -354 -385 -515 -44
-69 -99 -150 -122 -180 -107 -136 -259 -222 -455 -256 -50 -8 -93 -13 -95 -11
-3 2 27 12 66 21 157 38 286 111 386 219 33 34 103 132 157 217 54 85 150 225
213 310 283 384 309 430 286 507 -16 53 -71 141 -182 290 -145 197 -249 347
-328 475 -40 65 -93 142 -117 172 -87 106 -231 194 -397 242 -72 20 -76 23
-33 18 28 -3 75 -12 105 -19z m-5389 -11 c-176 -52 -335 -163 -424 -297 -19
-29 -82 -124 -139 -212 -58 -88 -169 -245 -247 -350 -214 -287 -231 -333 -168
-450 18 -33 100 -152 183 -265 84 -113 187 -259 229 -325 43 -66 102 -157 131
-201 98 -150 226 -245 414 -309 114 -38 80 -41 -59 -4 -200 53 -329 161 -479
400 -115 184 -228 335 -420 564 -84 99 -159 195 -167 212 -15 30 -14 35 4 70
10 21 73 101 139 179 218 257 329 404 442 584 101 161 144 214 222 275 109 86
279 154 383 154 35 0 29 -3 -44 -25z m485 -86 l10 -93 -88 -94 c-328 -348
-449 -808 -334 -1264 58 -227 171 -428 344 -609 l73 -77 -7 -95 c-4 -53 -10
-96 -14 -96 -4 0 -36 21 -71 47 -304 223 -501 533 -575 908 -25 124 -25 386 0
510 65 329 228 614 470 824 78 68 163 131 177 131 3 0 10 -42 15 -92z m4535
28 c391 -294 614 -790 569 -1266 -30 -319 -149 -595 -364 -844 -75 -87 -286
-259 -301 -245 -2 2 -8 45 -13 94 l-10 90 71 75 c262 274 389 580 389 940 1
372 -133 700 -392 959 l-67 67 10 97 c6 53 13 97 16 97 3 0 45 -29 92 -64z
m294 37 c33 -8 102 -36 154 -60 79 -38 108 -59 176 -127 44 -44 94 -103 109
-131 60 -104 219 -340 332 -492 148 -198 211 -295 225 -344 11 -35 9 -44 -19
-102 -18 -35 -93 -147 -168 -248 -174 -235 -245 -338 -329 -474 -112 -182
-187 -257 -330 -328 -67 -34 -183 -68 -270 -81 -29 -4 -17 3 40 23 165 58 305
146 384 240 22 26 78 109 126 185 47 76 140 222 207 324 202 308 235 389 203
500 -23 79 -73 169 -222 399 -71 109 -162 251 -203 317 -136 221 -250 315
-490 402 -54 20 -59 23 -25 18 22 -3 67 -13 100 -21z m-5225 -9 c-220 -75
-357 -186 -475 -384 -21 -36 -110 -174 -197 -307 -87 -133 -178 -282 -201
-330 -37 -78 -42 -96 -42 -158 0 -62 5 -80 42 -155 23 -47 96 -168 163 -270
67 -102 156 -241 198 -310 97 -160 150 -228 226 -291 58 -48 244 -149 276
-149 8 -1 26 -7 40 -15 25 -14 25 -14 -10 -9 -68 11 -199 54 -256 84 -124 66
-211 154 -309 315 -72 119 -202 307 -332 481 -188 252 -210 298 -179 377 16
41 43 79 287 414 63 87 155 221 203 298 49 77 107 162 129 188 84 101 228 187
377 226 113 30 152 26 60 -5z m1587 11 c88 -14 232 -55 263 -74 31 -21 -2 -22
-72 -3 -89 25 -209 42 -290 42 -53 0 -59 2 -54 18 5 15 5 15 -6 1 -7 -9 -35
-19 -63 -23 -27 -3 -67 -9 -87 -12 -43 -6 -49 6 -22 44 14 21 22 22 127 22 62
-1 153 -8 204 -15z m2349 9 c23 -6 52 -50 40 -62 -3 -2 -42 1 -88 8 -132 20
-290 9 -436 -30 -81 -22 -92 -24 -92 -11 0 20 192 76 303 90 85 10 241 13 273
5z m-3906 -62 c-228 -113 -313 -200 -487 -498 -159 -273 -216 -382 -247 -476
-70 -208 -37 -318 240 -788 191 -325 244 -383 468 -501 103 -55 102 -60 -3
-24 -195 66 -347 187 -446 355 -27 47 -121 195 -208 330 -203 314 -232 372
-232 465 0 95 33 161 222 452 82 125 176 272 208 327 127 209 266 317 500 387
91 27 89 23 -15 -29z m5146 14 c122 -44 213 -98 290 -174 63 -62 74 -77 242
-344 57 -90 137 -215 178 -278 41 -63 94 -153 117 -199 37 -74 42 -93 42 -151
0 -58 -5 -76 -46 -156 -25 -49 -101 -175 -170 -279 -69 -105 -161 -248 -204
-320 -133 -219 -262 -326 -473 -395 -52 -16 -99 -30 -105 -30 -7 0 36 24 95
53 209 105 289 186 446 449 257 432 302 533 302 686 0 134 -48 244 -271 623
-188 320 -249 385 -464 496 -55 29 -95 52 -88 53 7 0 56 -16 109 -34z m-5027
10 c-2 -2 -44 -31 -94 -64 -102 -68 -212 -170 -272 -252 -93 -129 -240 -422
-291 -581 -63 -195 -62 -338 4 -541 39 -120 177 -403 255 -524 63 -97 186
-219 299 -297 91 -63 78 -66 -35 -9 -99 49 -177 104 -241 170 -71 71 -86 94
-231 342 -243 415 -284 526 -248 684 21 97 118 291 284 568 166 278 250 362
463 463 82 39 120 54 107 41z m4957 -27 c140 -64 275 -167 348 -269 51 -69
262 -432 321 -550 68 -136 95 -224 95 -310 0 -128 -53 -250 -275 -625 -139
-236 -205 -318 -320 -401 -64 -45 -232 -130 -240 -122 -3 3 21 22 52 43 209
138 303 254 458 564 183 366 207 564 103 859 -36 105 -180 390 -248 494 -62
95 -177 210 -278 279 -119 81 -121 86 -16 38z m-5045 -96 c-94 -96 -217 -250
-181 -228 8 5 6 -4 -5 -23 -10 -17 -22 -29 -26 -26 -4 2 -11 -1 -15 -7 -4 -8
-3 -9 4 -5 18 11 15 2 -29 -85 -84 -169 -137 -369 -147 -564 -19 -346 63 -652
252 -932 79 -118 185 -230 341 -361 32 -27 27 -25 -25 10 -35 24 -112 90 -170
148 -58 58 -86 82 -62 53 23 -28 67 -74 97 -102 30 -27 55 -52 55 -55 0 -19
-228 153 -281 211 -100 110 -243 359 -325 563 -130 322 -109 534 88 919 113
220 147 270 258 382 61 61 138 127 185 157 44 29 83 52 86 52 3 0 -42 -48
-100 -107z m1355 88 c5 9 35 10 109 6 164 -10 340 -55 340 -87 0 -8 -7 -13
-15 -12 -8 2 -46 11 -85 20 -48 11 -118 17 -223 17 -94 0 -152 4 -152 10 0 6
-4 4 -9 -4 -8 -12 -127 -49 -163 -51 -12 0 -9 32 5 60 11 22 23 26 87 36 43 6
80 7 87 2 7 -6 14 -4 19 3z m2389 -1 c3 -5 12 -7 21 -3 22 8 140 -7 158 -20 9
-7 19 -28 22 -48 l6 -36 -82 21 c-45 12 -85 28 -91 36 -6 11 -9 12 -9 2 0 -10
-21 -11 -98 -6 -99 7 -224 -5 -320 -30 -55 -14 -64 -12 -55 10 16 42 426 110
448 74z m-3201 -37 c3 -10 6 -44 7 -76 2 -58 2 -58 -47 -102 -27 -24 -52 -44
-56 -45 -8 0 -26 59 -34 115 -6 40 -5 41 52 82 67 48 71 49 78 26z m4114 -49
l36 -31 -18 -77 -18 -78 -27 24 c-91 79 -88 75 -84 131 2 29 6 62 9 75 5 23 5
23 35 5 17 -10 47 -32 67 -49z m-3512 36 c-3 -11 -9 -29 -12 -40 -3 -13 -32
-33 -81 -55 -42 -19 -77 -35 -79 -35 -2 0 -4 22 -4 49 l0 50 53 19 c28 11 59
22 67 25 8 3 25 6 38 6 19 1 22 -3 18 -19z m3958 -29 c146 -114 241 -242 370
-501 187 -377 206 -584 82 -892 -66 -164 -188 -391 -262 -489 -46 -60 -194
-203 -202 -195 -2 3 18 30 46 61 158 173 285 435 339 700 27 135 25 434 -5
568 -60 274 -187 523 -363 711 -39 42 -68 76 -63 76 4 0 30 -18 58 -39z
m-3364 -17 c70 -18 80 -26 80 -62 0 -23 -2 -23 -57 -15 -109 15 -311 8 -398
-15 -60 -16 -81 -18 -87 -9 -6 9 -8 8 -8 -3 0 -17 -126 -77 -137 -66 -9 9 -4
93 7 122 10 24 64 45 130 50 33 2 43 4 80 18 33 12 325 -2 390 -20z m2032 15
c145 -29 179 -41 189 -66 16 -42 11 -72 -16 -89 -23 -15 -28 -15 -78 5 -111
45 -207 63 -337 65 -69 0 -153 -3 -187 -7 -62 -8 -63 -8 -63 16 0 36 19 46
117 67 101 21 292 26 375 9z m-3394 -159 l21 -80 -49 -64 c-326 -431 -324
-1054 4 -1477 l44 -56 -21 -79 c-11 -43 -22 -81 -25 -84 -2 -3 -35 29 -74 70
-347 375 -447 896 -262 1368 37 93 105 218 164 297 46 61 159 185 169 185 4 0
17 -36 29 -80z m4465 -17 c97 -109 194 -268 247 -405 72 -185 99 -458 67 -664
-30 -184 -100 -363 -207 -522 -71 -107 -194 -241 -207 -227 -5 6 -17 42 -27
81 l-18 71 60 81 c69 94 140 233 176 350 117 374 50 782 -180 1097 l-54 73 21
81 c21 76 23 79 42 66 11 -7 47 -44 80 -82z m-3058 66 c45 -13 55 -23 55 -59
0 -15 4 -30 9 -35 4 -6 16 -35 25 -65 44 -140 163 -348 275 -479 25 -30 41
-52 35 -50 -43 16 -892 515 -887 522 3 4 -1 7 -8 6 -15 -3 -114 45 -123 60 -7
11 10 24 54 40 19 8 49 19 65 26 28 12 144 39 210 49 50 7 247 -3 290 -15z
m1941 -9 c43 -11 83 -25 88 -30 6 -6 19 -10 31 -10 12 0 29 -6 39 -13 16 -12
16 -14 -9 -25 -15 -7 -31 -10 -36 -7 -5 4 -9 0 -9 -8 0 -21 -45 -40 -77 -33
-25 7 -26 6 -10 -6 19 -14 35 -5 -733 -452 l-35 -21 17 25 c124 177 179 276
223 405 16 44 33 85 40 90 6 6 10 16 7 23 -2 7 -1 24 2 37 6 24 30 32 141 49
61 9 245 -5 321 -24z m497 -65 c17 -12 17 -17 2 -91 -9 -44 -21 -83 -26 -89
-6 -6 -20 1 -38 20 l-28 30 10 87 10 87 26 -15 c14 -9 34 -21 44 -29z m-3279
16 c3 -5 8 -39 12 -77 6 -67 5 -70 -24 -97 -17 -16 -32 -24 -36 -19 -3 6 -13
45 -22 88 l-16 77 23 18 c26 20 54 24 63 10z m1199 -97 c55 -38 197 -173 197
-187 0 -4 -28 17 -63 48 -35 31 -78 65 -97 76 -26 15 -29 16 -10 2 14 -10 56
-45 95 -78 38 -33 73 -60 77 -60 3 0 10 -3 14 -7 4 -5 2 -8 -5 -8 -7 0 -9 -5
-6 -10 4 -6 12 -7 18 -4 7 4 9 4 5 0 -3 -4 14 -39 38 -77 70 -107 74 -123 74
-264 0 -69 -3 -125 -8 -125 -4 0 -44 29 -89 64 -64 51 -92 82 -132 147 -28 46
-58 102 -67 126 -9 23 -20 40 -24 38 -10 -6 -34 53 -55 134 -16 63 -31 221
-20 221 3 0 29 -16 58 -36z m873 -37 c-4 -79 -37 -212 -64 -264 -119 -225
-143 -256 -260 -324 -57 -34 -106 -58 -110 -55 -3 4 0 50 6 104 10 81 20 112
57 188 50 101 135 208 216 271 30 24 63 50 74 59 14 10 9 10 -13 -3 -19 -10
-70 -52 -115 -93 -57 -52 -72 -63 -50 -35 63 80 224 221 256 224 4 1 6 -32 3
-72z m956 16 c-7 -85 -11 -88 -62 -52 -45 31 -22 6 27 -29 l25 -18 -21 -79
c-29 -103 -78 -208 -142 -300 -68 -99 -90 -117 -130 -103 -26 9 -28 12 -17 27
12 14 11 15 -5 2 -15 -12 -33 -12 -132 4 -145 23 -414 17 -548 -12 -48 -11
-84 -16 -80 -12 7 6 280 166 761 448 96 55 183 101 195 101 11 0 17 3 13 7 -7
7 91 72 110 73 7 0 9 -20 6 -57z m108 -3 l35 -28 -12 -54 c-6 -29 -16 -66 -23
-83 l-11 -30 -50 52 c-40 42 -48 56 -44 80 2 15 7 49 10 76 l6 47 27 -16 c15
-8 43 -28 62 -44z m-2969 10 c4 -14 7 -44 8 -67 1 -55 61 -236 106 -322 19
-37 60 -98 90 -135 30 -38 52 -72 50 -76 -3 -4 -17 -11 -31 -14 -22 -6 -33 -1
-61 26 -77 74 -182 231 -227 339 -15 36 -15 37 21 80 l37 44 -37 -34 c-20 -19
-39 -33 -41 -30 -3 2 -14 36 -24 76 l-20 71 21 20 c64 57 96 64 108 22z m-674
-57 l23 -57 -24 -36 c-104 -158 -176 -406 -176 -610 0 -204 75 -461 179 -614
19 -29 19 -29 0 -80 -11 -28 -24 -54 -28 -58 -16 -18 -133 168 -186 297 -161
388 -107 821 144 1168 19 26 37 47 40 47 3 0 16 -26 28 -57z m733 40 c14 -9
27 -18 29 -19 2 -2 -2 -11 -10 -20 -13 -16 -12 -16 7 -4 21 13 32 11 64 -9 8
-6 201 -117 428 -247 227 -130 411 -238 409 -240 -2 -2 -32 1 -68 7 -103 17
-330 14 -453 -6 l-109 -18 -29 34 -30 34 22 -34 c19 -27 20 -35 9 -42 -8 -5
-25 -8 -38 -7 -31 4 -115 112 -170 218 -44 85 -94 236 -88 262 3 10 1 21 -4
24 -11 6 -12 84 -1 84 4 0 19 -8 32 -17z m3592 -83 c71 -105 131 -239 165
-368 34 -132 43 -365 19 -497 -21 -108 -64 -242 -107 -327 -37 -76 -137 -228
-148 -228 -5 0 -19 24 -31 54 l-22 55 41 68 c150 254 195 582 121 867 -31 116
-92 258 -142 329 -20 28 -20 28 2 83 13 30 28 53 34 51 6 -1 37 -41 68 -87z
m-3981 -14 l29 -88 -21 -34 c-11 -19 -22 -34 -25 -34 -6 0 -84 158 -84 171 0
15 53 78 63 76 4 -1 21 -42 38 -91z m3639 19 c0 -19 -79 -175 -88 -175 -5 0
-17 15 -26 33 -19 34 -18 36 40 206 3 10 14 5 39 -19 19 -19 35 -39 35 -45z
m-3430 -36 c12 -40 19 -80 17 -90 -3 -11 -1 -16 4 -13 5 3 21 -21 35 -53 37
-83 127 -217 191 -284 44 -47 52 -60 40 -65 -32 -12 -148 107 -241 245 -58 87
-65 107 -43 131 10 12 9 12 -6 1 -9 -8 -19 -12 -21 -10 -10 10 -56 130 -56
146 0 17 37 63 51 63 5 0 18 -32 29 -71z m3179 45 c12 -15 21 -32 21 -38 0
-23 -54 -146 -64 -146 -6 0 -12 -11 -12 -24 -3 -49 -161 -261 -240 -321 -20
-15 -42 -24 -50 -21 -12 5 -3 20 40 67 69 75 125 156 172 251 45 89 40 84 61
67 16 -13 16 -13 1 9 -16 23 -14 34 28 170 6 19 21 14 43 -14z m-109 -135 c0
-53 -147 -285 -233 -368 -30 -28 -40 -32 -66 -26 -17 4 -31 9 -31 11 0 3 24
37 54 77 87 117 142 230 176 366 l11 44 45 -44 c24 -24 44 -51 44 -60z m-3367
-11 c45 -86 46 -89 31 -123 -8 -19 -18 -35 -23 -35 -9 0 -107 137 -113 157 -4
14 44 94 53 91 4 -2 27 -42 52 -90z m226 12 c18 -45 30 -87 27 -95 -3 -8 0
-12 7 -10 7 3 37 -34 67 -82 30 -47 90 -123 133 -169 44 -46 72 -84 64 -84
-38 0 -277 260 -277 302 0 9 -6 18 -13 21 -8 3 -30 37 -51 76 -36 70 -37 71
-19 96 10 13 20 25 24 25 3 0 20 -36 38 -80z m3304 -43 c-25 -47 -44 -72 -54
-71 -11 1 -15 -5 -11 -18 9 -37 -231 -308 -274 -308 -8 0 -14 1 -14 3 0 1 34
37 75 80 41 44 97 113 125 155 27 43 56 85 65 95 8 9 15 20 15 25 0 4 14 43
32 86 l31 79 24 -27 23 -27 -37 -72z m262 86 c14 -21 25 -44 25 -53 0 -8 -26
-51 -57 -94 l-56 -79 -19 37 -19 38 47 94 c26 52 49 94 51 94 1 0 14 -17 28
-37z m-3975 -33 l30 -60 -21 -42 c-130 -254 -130 -642 0 -895 l21 -42 -33 -60
c-17 -34 -35 -61 -39 -61 -11 0 -79 127 -110 208 -52 133 -71 240 -71 402 0
162 18 267 71 402 34 88 99 208 112 208 5 0 23 -27 40 -60z m4168 -18 c57
-108 88 -193 112 -312 37 -182 24 -407 -33 -575 -26 -77 -88 -207 -116 -244
l-18 -23 -32 62 -33 62 26 57 c40 91 76 228 88 339 18 171 -15 374 -86 535
l-26 58 30 59 c17 33 34 60 38 60 5 0 27 -35 50 -78z m-3814 -73 c26 -45 45
-87 42 -94 -3 -8 0 -12 7 -10 7 2 32 -23 57 -56 25 -33 80 -95 123 -136 51
-50 74 -80 68 -86 -11 -11 -62 25 -151 107 -95 88 -230 256 -230 286 0 10 31
70 36 70 1 0 22 -36 48 -81z m3440 46 c23 -35 21 -44 -31 -115 -108 -149 -301
-330 -337 -317 -10 4 11 31 70 89 47 45 104 108 127 138 23 30 44 57 47 60 5
5 25 39 68 119 14 28 30 51 33 51 4 0 14 -11 23 -25z m-3719 -77 c15 -24 43
-62 62 -85 l34 -42 -16 -59 c-38 -148 -38 -336 1 -484 l14 -58 -44 -54 c-24
-29 -52 -68 -62 -85 -10 -17 -22 -31 -25 -31 -11 0 -67 151 -85 227 -50 218
-35 420 48 636 16 42 33 77 37 77 5 0 21 -19 36 -42z m4014 -74 c83 -229 80
-500 -8 -735 -39 -103 -39 -103 -110 -4 l-64 87 19 76 c26 107 26 325 0 439
l-19 81 35 44 c20 23 48 63 64 86 25 39 29 42 40 27 7 -10 27 -55 43 -101z
m-3794 -6 c53 -76 178 -205 251 -260 46 -35 54 -48 29 -48 -31 0 -225 144
-225 167 0 8 -4 12 -9 9 -11 -7 -131 118 -131 138 0 19 21 66 29 66 3 -1 29
-33 56 -72z m3572 13 c5 -19 -7 -37 -73 -102 -124 -124 -277 -236 -302 -220
-8 5 1 17 33 40 69 49 205 189 260 268 44 64 51 70 63 55 7 -9 16 -28 19 -41z
m-3531 -231 c2 0 35 -24 73 -52 37 -29 77 -58 87 -65 16 -11 17 -14 4 -22 -8
-5 -48 -34 -89 -65 -41 -30 -78 -53 -83 -50 -4 3 -8 -1 -8 -8 0 -18 -136 -152
-143 -141 -17 27 -37 177 -37 273 0 97 20 246 37 274 3 5 40 -25 81 -68 41
-42 76 -76 78 -76z m3590 29 c12 -68 15 -124 10 -204 -5 -100 -25 -217 -39
-232 -3 -3 -39 28 -79 69 -40 40 -111 102 -158 137 -47 35 -86 66 -87 70 -2 5
138 111 159 119 4 2 42 39 85 83 57 59 79 76 85 66 4 -8 15 -57 24 -108z
m-2448 -47 c-9 -4 49 -7 130 -7 l147 0 78 -39 c43 -22 82 -45 88 -52 8 -9 -7
-23 -58 -52 -127 -73 -115 -71 -304 -73 -163 -2 -180 0 -262 25 -112 34 -153
54 -138 69 7 7 18 7 38 -2 l28 -13 -22 21 c-12 12 -27 21 -32 21 -5 0 -13 4
-16 10 -6 9 29 27 114 56 71 25 264 58 209 36z m1279 -23 c91 -23 174 -58 167
-71 -4 -5 -17 -8 -30 -5 -18 3 -22 1 -14 -8 7 -9 -1 -17 -30 -30 -22 -10 -38
-20 -36 -22 2 -2 24 6 50 19 35 17 49 19 58 10 15 -15 -56 -46 -177 -77 -79
-20 -108 -22 -242 -19 -133 4 -161 7 -225 30 -87 31 -168 71 -168 82 0 12 66
47 150 78 60 22 100 29 200 34 145 8 198 5 297 -21z m-5031 -192 c295 -220
562 -518 776 -866 53 -86 95 -139 162 -206 126 -125 237 -186 399 -222 120
-27 352 -20 472 14 13 3 17 2 10 -5 -5 -5 -390 -232 -855 -502 -465 -271 -897
-523 -960 -560 -63 -37 -125 -73 -137 -79 l-23 -12 0 1271 0 1271 29 -15 c16
-9 73 -48 127 -89z m2838 31 c-74 -58 -165 -141 -175 -159 -6 -12 -17 -18 -25
-15 -8 3 -14 -1 -14 -10 0 -9 -25 -50 -56 -91 -56 -74 -57 -75 -70 -52 -7 13
-13 33 -14 44 0 23 122 150 133 139 4 -4 7 0 7 9 0 29 217 184 234 167 6 -6
-1 -18 -20 -32z m3009 -6 c78 -52 217 -173 262 -228 35 -42 36 -45 24 -79 -7
-19 -16 -35 -19 -35 -3 0 -31 34 -61 75 -57 80 -163 190 -241 251 -83 64 -56
76 35 16z m-2919 -1 c3 -5 -32 -46 -78 -91 -46 -45 -101 -106 -123 -135 -21
-31 -44 -52 -51 -50 -7 3 -10 1 -7 -5 3 -5 -15 -48 -41 -95 l-47 -86 -18 28
c-10 15 -19 35 -19 43 0 17 43 84 80 127 14 16 45 52 68 81 40 47 207 191 224
192 4 0 9 -4 12 -9z m1606 -121 c45 -45 79 -92 109 -150 25 -47 50 -91 57 -98
26 -25 96 -294 81 -309 -5 -4 -66 28 -112 60 -16 12 -61 50 -100 86 -62 58
-65 60 -20 12 50 -53 174 -152 208 -164 19 -7 33 -34 23 -44 -3 -3 -14 1 -24
10 -10 10 -22 17 -26 17 -33 0 -223 187 -231 228 -2 10 -15 36 -30 58 -79 115
-124 251 -125 377 l0 48 62 -33 c35 -18 92 -62 128 -98z m1348 -14 c47 -45 82
-87 82 -98 0 -11 4 -17 10 -13 9 6 110 -130 110 -149 0 -6 -10 -23 -23 -39
l-22 -27 -45 86 c-25 47 -55 98 -67 113 -79 97 -157 182 -198 215 -33 27 -43
41 -34 47 18 11 88 -40 187 -135z m-1638 5 c0 -124 -1 -131 -31 -187 -16 -32
-46 -80 -65 -107 -20 -27 -30 -46 -24 -42 9 6 9 2 1 -13 -6 -12 -17 -24 -24
-28 -7 -5 -7 -1 2 12 8 10 -7 -2 -35 -27 -27 -26 -78 -68 -114 -94 l-65 -47
-5 43 -6 44 -4 -53 c-3 -30 -2 -56 3 -59 4 -2 7 0 7 5 0 5 24 25 53 44 28 19
76 56 105 82 86 79 59 35 -34 -53 -47 -44 -96 -84 -109 -87 -13 -3 -26 -12
-29 -20 -7 -18 -36 -18 -36 0 0 8 4 17 8 20 5 3 7 19 4 35 -8 53 59 304 76
286 3 -3 18 22 34 55 49 110 112 193 195 258 43 34 81 62 85 62 5 0 8 -58 8
-129z m-1250 106 c0 -2 -35 -40 -77 -84 -43 -44 -103 -118 -133 -166 -30 -47
-59 -84 -65 -83 -5 2 -11 -8 -11 -23 -1 -28 -54 -161 -63 -161 -3 0 -14 12
-24 25 -17 24 -17 26 18 95 20 39 42 73 50 76 8 4 12 10 9 16 -15 24 244 308
282 308 8 0 14 -1 14 -3z m2713 -43 c58 -47 152 -152 194 -216 23 -34 25 -78
4 -78 -4 0 -32 37 -61 82 -30 45 -89 119 -132 164 -43 44 -78 84 -78 88 0 15
21 3 73 -40z m-2660 20 c4 -4 -21 -36 -55 -72 -69 -75 -135 -173 -180 -267
-17 -38 -34 -62 -40 -58 -7 4 -8 1 -3 -6 8 -13 -33 -171 -45 -171 -3 0 -18 12
-32 28 l-27 27 29 74 c16 40 31 75 34 78 3 3 14 0 23 -8 15 -11 16 -11 6 1 -7
8 -13 22 -13 31 0 30 115 191 194 272 72 72 93 86 109 71z m2639 -71 c69 -72
198 -251 198 -276 0 -6 -10 -21 -22 -34 l-22 -23 -36 77 c-41 86 -112 190
-183 269 -44 48 -49 64 -22 64 6 0 45 -35 87 -77z m-2577 47 l27 -10 -26 -33
c-95 -117 -174 -266 -203 -382 -9 -36 -19 -65 -23 -65 -8 0 -90 86 -90 95 0
16 89 179 128 235 49 69 140 170 153 170 4 0 20 -5 34 -10z m2486 -32 c98
-100 236 -323 227 -366 -2 -9 2 -21 9 -27 7 -5 20 -40 30 -76 19 -76 18 -79
-47 -124 -51 -35 -66 -25 -73 53 -5 55 -3 59 32 96 l36 40 -34 -28 c-19 -15
-37 -23 -41 -19 -4 4 -14 37 -24 73 -24 91 -106 253 -166 327 -27 34 -50 65
-50 68 0 6 38 23 53 24 4 1 26 -18 48 -41z m-2392 3 c13 -8 13 -12 1 -28 -14
-17 -14 -17 7 0 21 18 26 18 120 3 155 -24 249 -28 377 -17 65 7 120 10 122 8
3 -3 -659 -392 -753 -442 -31 -16 -63 -36 -71 -43 -8 -8 -23 -11 -33 -9 -11 3
-16 0 -13 -7 3 -7 -11 -20 -31 -29 l-35 -17 0 38 c0 49 8 57 34 35 15 -13 13
-9 -4 10 l-24 28 17 67 c38 149 198 412 250 412 12 0 28 -4 36 -9z m2303 -29
c82 -91 154 -225 193 -358 14 -47 23 -89 20 -93 -2 -4 -22 -20 -43 -35 -36
-25 -72 -27 -72 -5 0 5 -6 9 -13 9 -7 0 -121 61 -252 137 -132 75 -323 183
-425 240 -102 58 -189 108 -193 112 -4 4 30 1 75 -7 121 -21 379 -20 501 2 96
17 99 17 112 -1 7 -10 23 -29 35 -43 12 -14 8 -5 -9 20 -28 40 -30 45 -14 52
35 13 51 8 85 -30z m-1593 -84 c-75 -88 -152 -204 -206 -313 -42 -84 -97 -227
-108 -282 -7 -35 -12 -38 -105 -53 -121 -19 -279 -8 -398 28 -44 14 -58 23
-63 42 -7 23 -7 23 -8 3 l-1 -22 -50 22 c-27 12 -51 26 -52 31 -2 4 25 23 60
42 58 32 65 33 85 19 12 -8 26 -15 32 -15 5 1 -3 8 -19 16 -15 9 -24 19 -20
24 5 4 90 55 189 113 99 58 299 175 445 261 146 85 269 155 273 156 5 0 -19
-33 -54 -72z m1144 -181 c177 -101 360 -206 407 -232 47 -26 87 -50 90 -52 3
-3 -4 -12 -15 -20 -20 -16 -16 -15 30 3 9 4 17 -1 21 -10 3 -9 10 -13 15 -11
9 6 89 -36 89 -46 0 -8 -83 -45 -94 -41 -5 2 -12 -2 -16 -7 -12 -20 -165 -52
-275 -58 -114 -6 -240 8 -268 30 -9 7 -18 26 -20 42 -7 41 -69 201 -112 286
-42 85 -85 152 -154 243 -29 38 -45 66 -36 62 9 -3 161 -88 338 -189z m-623
-182 c58 -119 124 -219 203 -310 49 -57 55 -69 46 -87 -6 -11 -8 -22 -6 -25 3
-2 8 5 12 17 l7 22 24 -23 c13 -12 24 -30 24 -38 0 -27 -74 -184 -116 -247
-53 -79 -174 -206 -191 -199 -31 12 -46 15 -25 4 12 -7 22 -15 22 -18 0 -7
-105 -81 -114 -81 -3 0 -6 32 -6 70 l0 71 30 -16 c38 -19 54 -19 18 1 -36 19
-35 28 6 53 19 12 40 29 47 38 8 9 -9 0 -37 -20 -28 -20 -54 -37 -58 -37 -3 0
-6 255 -6 568 l1 567 35 -105 c19 -57 57 -149 84 -205z m-1948 251 c16 -33 16
-34 -29 -122 -25 -49 -48 -91 -50 -93 -4 -5 -23 20 -47 60 -15 26 -14 29 30
95 74 111 73 110 96 60z m3744 -58 c43 -64 45 -71 34 -98 -11 -27 -47 -68 -53
-59 -1 2 -22 44 -46 92 -44 89 -44 89 -27 124 20 43 28 38 92 -59z m-3677 -61
l21 -34 -31 -88 c-16 -49 -32 -91 -34 -93 -6 -6 -64 61 -65 74 0 23 73 174 85
174 2 0 13 -15 24 -33z m3601 -182 c-19 -19 -36 -35 -39 -35 -6 0 -62 168 -61
183 0 5 10 23 22 40 l22 30 45 -91 45 -92 -34 -35z m-1910 -291 l0 -445 -30
21 c-51 36 -130 121 -181 194 -27 38 -49 65 -49 60 0 -23 138 -189 195 -236
55 -45 65 -58 65 -85 0 -26 -6 -36 -30 -48 -38 -20 -52 -13 -119 61 -91 99
-163 218 -202 333 -19 55 -19 55 2 77 12 13 26 21 30 18 5 -3 9 0 9 6 0 6 29
46 65 89 80 97 160 223 206 325 19 42 35 76 37 76 1 0 2 -201 2 -446z m-1401
382 l43 -44 -7 -61 c-5 -47 -11 -62 -26 -66 -26 -9 -112 60 -105 83 30 110 38
132 44 132 4 0 27 -20 51 -44z m-145 -85 c28 -29 28 -31 20 -103 -8 -62 -12
-73 -29 -75 -11 -2 -31 6 -44 16 l-25 19 18 86 c10 47 22 86 25 86 4 0 20 -13
35 -29z m3277 -13 c6 -23 14 -64 18 -90 8 -47 7 -49 -26 -69 -45 -28 -55 -18
-64 72 -8 70 -8 70 24 99 18 16 33 30 34 30 1 0 7 -19 14 -42z m-3665 -307
c-3 -41 -8 -76 -10 -79 -3 -2 -33 15 -67 39 l-61 43 6 46 c3 25 10 62 16 83
l11 37 55 -47 55 -48 -5 -74z m664 139 c33 -17 60 -36 60 -43 0 -9 2 -9 8 -1
5 9 27 6 82 -8 95 -25 281 -34 379 -19 40 6 75 10 77 8 2 -2 1 -18 -2 -35 -6
-29 -11 -32 -78 -47 -146 -33 -407 -36 -427 -4 -6 9 -9 10 -9 2 0 -7 -6 -11
-12 -9 -7 2 -43 12 -80 21 -74 19 -73 17 -83 108 -8 69 -2 71 85 27z m2758 5
c2 -10 1 -41 -3 -70 l-6 -53 -61 -17 c-34 -9 -75 -19 -92 -21 -17 -2 -65 -9
-106 -14 -81 -11 -184 -6 -295 15 -105 20 -122 29 -127 65 -5 30 -3 31 21 26
14 -4 83 -9 153 -13 130 -6 240 5 321 33 20 7 37 11 37 9 0 -2 30 12 68 30 73
36 85 38 90 10z m706 -54 c9 -39 16 -74 16 -79 0 -5 -30 -31 -67 -56 l-68 -47
-7 78 -7 78 52 47 c29 26 55 47 59 48 3 0 14 -31 22 -69z m-3622 -46 c71 -32
76 -37 86 -76 l10 -41 -31 5 c-18 3 -57 15 -88 26 -55 21 -57 23 -61 64 -4 38
-2 57 6 57 2 0 37 -16 78 -35z m3078 -12 c0 -21 -4 -43 -8 -49 -8 -12 -163
-66 -170 -59 -9 8 14 78 28 86 46 26 117 57 133 58 13 1 17 -7 17 -36z m-2901
-50 c63 -15 77 -22 92 -48 20 -31 26 -28 9 5 -9 17 -3 18 113 13 112 -5 228 7
335 34 19 5 23 2 20 -13 -4 -24 -123 -58 -256 -74 -85 -11 -241 -8 -307 5 -72
14 -72 14 -83 55 -5 22 -7 40 -3 40 3 0 39 -8 80 -17z m2206 -19 c63 -11 127
-15 213 -12 67 2 122 2 122 0 0 -1 -7 -16 -15 -32 -15 -29 -18 -30 -88 -30
-144 0 -377 54 -377 87 0 11 7 14 28 9 15 -3 68 -13 117 -22z m-1645 -48 c-23
-28 -206 -79 -332 -91 -60 -7 -67 -5 -77 13 -6 12 -11 23 -11 26 0 3 31 6 68
6 73 0 228 23 296 45 58 18 71 19 56 1z m1570 -1 c116 -41 362 -59 489 -35 34
6 65 9 68 6 3 -2 -1 -17 -9 -33 -13 -27 -16 -28 -102 -31 -81 -3 -88 -1 -82
15 5 16 5 16 -9 -1 -12 -17 -22 -18 -87 -12 -122 13 -328 73 -328 96 0 13 10
13 60 -5z m-1250 -18 c0 -26 69 -168 113 -233 25 -38 72 -98 105 -134 41 -44
56 -68 48 -73 -7 -6 -4 -7 7 -3 31 10 97 -49 97 -85 0 -26 -6 -33 -42 -49 -28
-12 -48 -16 -58 -10 -25 14 -129 134 -184 213 -43 64 -112 214 -132 289 l-18
67 25 19 c24 21 39 20 39 -1z m919 -1 l22 -24 -30 -91 c-38 -113 -68 -175
-134 -273 -49 -73 -54 -78 -82 -73 -29 5 -29 5 -6 -5 25 -11 25 -11 -35 -71
l-61 -61 -66 31 c-37 16 -67 32 -67 34 0 2 26 24 58 47 36 28 66 43 82 42 19
-1 21 1 11 7 -12 8 -2 24 49 77 84 90 153 198 192 300 17 46 34 84 38 84 4 0
17 -11 29 -24z m-1239 -40 c0 -17 -128 -69 -247 -99 l-83 -22 -22 22 c-12 12
-20 25 -17 27 2 3 48 12 100 20 53 9 130 26 170 40 89 29 99 30 99 12z m1630
-19 c47 -13 125 -30 173 -37 87 -12 88 -12 73 -34 -11 -16 -23 -21 -58 -19
-44 1 -207 50 -267 81 -38 19 -57 49 -25 40 11 -3 57 -17 104 -31z m-1368 -42
c36 -135 136 -309 245 -425 32 -34 59 -66 61 -70 2 -5 -14 -14 -35 -19 -37
-11 -39 -10 -75 31 -20 24 -44 55 -53 71 -15 25 -15 27 2 28 12 1 10 3 -7 8
-63 17 -213 394 -173 434 13 14 19 5 35 -58z m1034 51 c14 -37 -67 -271 -128
-373 -25 -41 -38 -53 -58 -54 -17 -1 -19 -3 -7 -6 23 -6 22 -8 -17 -62 -55
-75 -66 -82 -109 -70 -20 5 -37 13 -37 16 0 4 29 35 65 71 36 35 65 65 65 68
0 2 15 25 34 51 52 73 114 199 143 291 25 79 38 97 49 68z m-2424 -46 l63 -30
16 -70 c9 -38 14 -71 12 -74 -2 -2 -36 6 -74 17 -51 15 -73 26 -79 41 -10 29
-18 146 -9 146 4 0 36 -13 71 -30z m462 9 c60 -11 71 -16 87 -43 10 -17 19
-34 19 -38 0 -10 -125 -11 -168 -2 -26 5 -33 14 -46 52 -20 58 -21 55 12 48
15 -3 58 -11 96 -17z m2966 10 c0 -7 -5 -29 -11 -49 -13 -44 -30 -50 -145 -50
l-74 0 20 40 c17 34 25 40 53 41 17 0 55 7 82 14 66 17 75 17 75 4z m415 -66
c-4 -43 -10 -81 -13 -85 -10 -9 -144 -49 -149 -44 -5 5 22 135 29 141 8 7 124
64 132 65 4 0 5 -35 1 -77z m-2501 -10 c22 -89 63 -192 107 -269 l30 -54 -29
0 c-28 0 -32 5 -62 78 -39 93 -46 113 -70 221 -18 80 -18 101 -2 101 4 0 16
-35 26 -77z m1126 57 c0 -34 -38 -183 -65 -254 -41 -108 -52 -126 -81 -126
-14 0 -24 3 -22 8 2 4 24 51 50 104 27 54 60 140 75 193 25 89 43 121 43 75z
m-1190 -29 c0 -34 48 -204 79 -278 20 -50 26 -73 18 -77 -7 -2 -5 -5 4 -5 9
-1 28 -22 42 -48 15 -27 36 -63 48 -80 l21 -33 -44 0 -45 0 -37 80 c-21 43
-35 84 -32 89 3 5 1 11 -4 13 -25 8 -91 305 -76 343 8 21 26 19 26 -4z m1238
-68 c-12 -86 -44 -217 -63 -256 -8 -17 -15 -35 -15 -41 0 -7 -16 -44 -35 -84
l-34 -72 -46 0 -45 0 33 53 c19 28 41 64 51 80 9 15 24 27 34 27 13 0 14 2 3
9 -10 7 -6 26 22 97 31 78 49 139 72 247 4 22 9 26 19 18 10 -8 11 -26 4 -78z
m232 52 c112 -41 208 -64 295 -71 106 -8 114 -13 85 -51 -20 -29 -24 -30 -67
-22 -53 10 -125 29 -136 36 -5 3 0 15 10 26 l18 22 -22 -19 c-16 -13 -31 -17
-54 -12 -53 10 -229 98 -229 114 0 9 6 12 18 7 9 -4 46 -17 82 -30z m-1535
-67 c4 -29 18 -96 31 -147 19 -74 21 -97 11 -103 -9 -6 -8 -8 4 -8 13 0 32
-37 87 -172 6 -13 -65 -9 -76 5 -6 6 -20 47 -33 90 -18 62 -20 80 -10 86 10 6
9 9 -2 14 -21 8 -58 251 -42 276 13 23 23 9 30 -41z m1375 3 c0 -50 -17 -191
-26 -223 -3 -10 -13 -19 -22 -19 -15 -1 -15 -2 1 -6 21 -5 21 1 -12 -103 l-27
-85 -41 -3 -42 -3 36 83 c19 46 42 89 51 96 9 6 11 12 5 12 -6 0 -1 36 14 93
13 50 26 118 30 150 4 38 10 57 19 57 10 0 14 -14 14 -49z m-2775 -31 l90 -39
16 -68 c59 -236 178 -447 348 -620 241 -244 549 -382 891 -399 144 -7 262 5
408 42 l101 25 75 -56 c42 -31 76 -58 76 -61 0 -9 -131 -65 -220 -94 -155 -51
-248 -64 -445 -64 -256 -1 -421 37 -639 146 -146 72 -237 139 -367 268 -251
248 -380 523 -425 903 -3 31 -4 57 -2 57 2 0 44 -18 93 -40z m1315 -2 c0 -24
5 -72 10 -108 6 -45 6 -66 -2 -69 -7 -2 -6 -6 2 -11 13 -8 64 -189 56 -197 -6
-7 -151 44 -209 74 -97 48 -267 178 -267 202 0 5 118 40 190 57 3 0 18 6 33
12 101 42 134 57 152 69 30 20 35 16 35 -29z m2916 -40 c-43 -521 -404 -1002
-899 -1199 -354 -142 -787 -129 -1133 33 -35 16 -64 31 -64 33 0 3 121 92 146
108 7 4 56 -4 109 -18 140 -36 260 -48 410 -41 328 15 615 137 855 363 194
183 321 405 390 681 9 34 17 46 38 53 15 5 54 22 87 38 33 16 62 30 64 30 2 1
1 -36 -3 -81z m-1293 33 c48 -21 90 -41 93 -44 3 -3 -13 -18 -35 -33 -23 -14
-41 -29 -41 -31 0 -6 19 5 59 35 l34 26 91 -24 c50 -12 95 -26 99 -30 13 -11
-136 -132 -221 -181 -64 -37 -224 -99 -254 -99 -6 0 -7 8 -3 18 3 9 16 53 27
97 l20 80 53 23 c30 13 62 30 72 38 10 8 -10 1 -44 -16 -34 -16 -66 -30 -71
-30 -4 0 -4 33 1 73 14 118 18 137 25 137 5 0 47 -17 95 -39z m-2190 21 c39
-6 51 -13 68 -39 l20 -31 -38 -6 c-36 -5 -145 -10 -169 -7 -10 1 -44 63 -44
81 0 11 89 12 163 2z m2817 3 c0 -11 -40 -84 -49 -89 -12 -8 -176 5 -192 14
-9 6 -6 16 10 38 20 28 28 31 84 35 122 7 147 7 147 2z m1066 -158 c110 -62
318 -181 464 -264 335 -190 937 -532 1188 -675 170 -97 191 -112 175 -123 -10
-7 -216 -126 -458 -265 -242 -139 -557 -321 -700 -403 -143 -82 -380 -219
-527 -304 -148 -84 -321 -184 -385 -222 -109 -64 -118 -67 -123 -48 -8 30 7
174 31 302 60 321 151 581 323 923 111 220 136 295 143 447 11 230 -73 440
-261 658 -42 48 -74 87 -72 87 2 0 93 -51 202 -113z m-4407 63 c41 -11 76 -22
79 -24 2 -3 19 -40 38 -83 153 -353 468 -612 853 -704 106 -26 327 -36 426
-20 l70 11 60 -60 c32 -33 56 -62 52 -66 -12 -13 -163 -44 -267 -55 -441 -48
-899 156 -1169 520 -59 79 -133 214 -170 309 -28 72 -61 192 -53 192 4 0 40
-9 81 -20z m3776 -12 c-28 -126 -127 -342 -210 -456 -301 -413 -826 -617
-1320 -513 -148 31 -144 26 -73 99 42 44 66 61 77 57 9 -4 81 -9 161 -12 224
-8 384 25 585 123 131 63 255 154 357 263 92 98 157 194 219 327 l48 101 73
20 c95 27 91 28 83 -9z m-4090 -230 c47 -165 134 -338 237 -476 41 -54 44 -61
17 -37 l-33 30 33 -42 c18 -24 38 -46 44 -50 7 -4 5 2 -3 13 -14 18 -14 18 2
5 10 -7 15 -17 12 -22 -7 -12 109 -124 198 -191 201 -151 420 -246 668 -289
170 -30 486 -12 646 36 73 22 66 9 -17 -29 -188 -86 -329 -112 -569 -102 -452
17 -635 77 -825 270 -124 125 -325 421 -389 573 -61 145 -93 331 -81 472 l8
86 14 -80 c7 -44 25 -119 38 -167z m531 202 c15 0 34 -22 73 -87 205 -347 570
-560 968 -566 l105 -2 40 -47 c36 -43 38 -49 21 -55 -10 -5 -99 -8 -198 -7
-162 1 -190 3 -277 27 -223 61 -411 171 -563 328 -50 52 -109 121 -132 154
-41 61 -114 201 -128 244 -7 23 -6 24 31 18 22 -4 48 -7 60 -7z m497 -46 c114
-104 256 -185 393 -222 l67 -18 22 -60 c13 -33 32 -79 44 -102 l21 -42 -24 0
c-13 0 -60 7 -103 15 -198 37 -375 125 -519 255 -63 57 -174 185 -174 201 0 5
109 21 193 28 11 0 47 -24 80 -55z m2457 40 c44 -4 80 -11 80 -17 0 -32 -142
-183 -245 -259 -95 -72 -186 -119 -303 -158 -88 -29 -247 -58 -258 -47 -5 4
47 134 74 186 4 7 41 23 82 36 41 12 97 32 125 44 75 34 204 123 260 181 42
43 54 50 78 46 15 -3 63 -9 107 -12z m391 -33 c-49 -130 -166 -298 -285 -408
-161 -151 -346 -247 -586 -305 -59 -14 -412 -19 -426 -6 -4 4 6 24 22 45 16
20 32 41 35 46 3 5 57 10 120 12 240 8 423 67 625 201 112 74 263 234 333 352
49 84 57 92 90 98 20 3 43 7 51 9 39 8 40 6 21 -44z m-4276 -42 c-145 -193
-216 -439 -185 -642 18 -118 42 -185 139 -377 109 -215 156 -328 220 -523 74
-229 115 -432 136 -669 l6 -67 87 44 c110 54 304 125 452 164 247 65 453 95
751 111 261 13 386 49 534 154 143 102 228 223 343 486 8 18 11 -273 11 -1087
1 -611 -2 -1114 -7 -1117 -9 -5 -4334 2466 -4339 2479 -1 6 329 204 734 440
405 237 834 487 952 556 119 70 217 125 219 124 2 -1 -22 -36 -53 -76z m1165
19 c46 -68 160 -184 233 -237 138 -101 309 -170 484 -196 59 -9 108 -17 108
-18 0 -1 15 -26 33 -55 18 -29 32 -56 32 -59 0 -3 -55 -3 -122 0 -382 16 -727
229 -923 570 l-27 47 74 0 73 -1 35 -51z m2970 45 c0 -14 -70 -124 -114 -182
-61 -79 -178 -188 -263 -244 -115 -76 -277 -144 -410 -172 -54 -11 -236 -22
-259 -16 -22 6 -22 7 13 63 33 54 38 57 82 63 328 40 586 185 769 433 l46 62
68 0 c37 0 68 -3 68 -7z m-3809 -150 c19 -238 76 -384 252 -648 196 -294 336
-418 546 -486 158 -50 264 -63 556 -63 258 -1 261 -1 350 27 50 16 132 48 184
73 52 24 96 43 98 41 8 -8 -150 -109 -230 -148 -152 -73 -225 -82 -632 -76
-468 6 -526 19 -653 150 -81 84 -141 175 -284 427 -187 329 -207 381 -215 556
-5 107 3 271 14 260 3 -2 9 -54 14 -113z m-46 -70 c0 -261 5 -276 218 -648
149 -261 219 -365 301 -443 69 -66 123 -95 226 -119 88 -21 713 -31 833 -13
136 20 252 67 378 152 95 65 100 65 34 3 -109 -103 -235 -177 -360 -210 -40
-11 -138 -19 -300 -25 -131 -5 -320 -14 -420 -20 -217 -12 -327 -2 -389 34
-69 40 -125 123 -241 356 -37 74 -116 227 -176 340 -141 267 -171 380 -150
551 9 67 39 219 44 219 1 0 2 -80 2 -177z m4499 57 c7 -108 -7 -238 -39 -337
-27 -84 -252 -492 -356 -644 -105 -153 -197 -227 -321 -257 -133 -33 -744 -38
-899 -7 -94 19 -203 67 -306 135 -131 86 -131 97 -1 35 64 -31 160 -67 214
-82 91 -25 114 -27 294 -27 388 1 632 52 795 169 173 123 446 504 530 737 33
93 65 262 65 349 1 72 17 23 24 -71z m-4552 30 c-10 -43 -16 -111 -16 -205 -1
-182 13 -229 149 -485 56 -107 137 -265 180 -350 95 -192 171 -308 225 -345
96 -67 168 -69 960 -25 251 14 338 49 560 226 l35 28 -36 -44 c-91 -114 -253
-218 -394 -255 -37 -10 -143 -20 -280 -26 -121 -5 -341 -23 -490 -40 -272 -31
-373 -33 -412 -9 -38 24 -87 115 -195 364 -60 137 -156 342 -214 455 -61 120
-111 233 -121 271 -21 84 -20 232 2 330 17 75 54 184 60 178 2 -2 -4 -32 -13
-68z m4609 -125 c20 -164 -18 -329 -111 -485 -18 -30 -91 -170 -163 -310 -257
-503 -250 -497 -627 -486 -424 12 -741 33 -800 51 -122 38 -258 124 -350 221
-47 49 -40 50 20 4 94 -73 230 -137 350 -164 60 -14 137 -17 429 -18 484 -2
562 14 696 143 84 81 135 156 298 441 205 357 221 403 220 648 0 147 1 152 13
105 7 -27 19 -95 25 -150z m33 93 c50 -166 53 -321 9 -453 -9 -27 -69 -153
-133 -280 -64 -126 -145 -297 -180 -380 -80 -190 -141 -313 -175 -353 -51 -61
-82 -62 -481 -16 -116 13 -321 30 -455 38 -266 16 -332 29 -439 88 -72 40
-170 119 -218 177 -60 72 -61 80 -1 27 105 -94 213 -158 334 -196 58 -18 108
-23 290 -30 121 -5 303 -15 405 -21 102 -6 228 -9 280 -6 214 12 249 49 475
492 71 138 146 282 167 320 83 147 108 228 115 376 5 103 -2 189 -24 277 -3
12 -3 22 1 22 3 0 17 -37 30 -82z m-4704 -8 c-11 -36 -25 -107 -31 -160 -21
-166 14 -307 128 -513 65 -117 128 -251 230 -487 156 -362 172 -380 339 -380
38 0 142 9 230 19 254 31 366 41 579 51 203 9 269 20 368 62 75 31 174 99 240
164 79 78 72 53 -9 -35 -112 -121 -232 -195 -370 -227 -35 -8 -154 -19 -264
-24 -228 -12 -427 -35 -675 -80 -93 -17 -200 -34 -236 -37 -62 -5 -67 -4 -86
21 -24 30 -56 105 -117 279 -87 243 -138 363 -252 592 -62 127 -121 259 -131
295 -23 86 -22 253 1 339 19 69 66 194 72 188 2 -1 -5 -32 -16 -67z m4795
-130 c11 -43 19 -111 19 -160 0 -144 -22 -212 -147 -461 -110 -218 -174 -370
-292 -691 -31 -87 -66 -169 -77 -183 -24 -31 -56 -32 -209 -5 -431 76 -569 94
-834 105 -223 10 -337 42 -460 130 -64 45 -155 137 -195 195 -16 25 -2 14 51
-36 88 -83 148 -126 232 -164 105 -47 181 -60 409 -70 117 -5 335 -24 483 -41
277 -32 377 -33 431 -8 46 22 96 108 190 324 92 211 190 417 273 575 109 206
131 348 86 559 -7 36 -16 75 -19 86 -4 11 4 -2 17 -30 13 -27 32 -84 42 -125z
m-245 9 c-27 -130 -64 -219 -152 -367 -193 -321 -350 -490 -534 -573 -152 -69
-416 -105 -712 -96 -154 4 -189 8 -267 31 -84 25 -310 125 -301 133 2 2 38 -8
80 -21 164 -54 381 -82 546 -72 606 39 1119 422 1321 986 17 50 34 89 36 86 2
-2 -6 -50 -17 -107z m-4634 40 c-30 -105 -37 -186 -26 -285 13 -119 40 -193
149 -405 98 -191 164 -346 266 -632 37 -103 80 -207 96 -232 39 -62 65 -65
264 -31 433 75 506 83 870 106 255 16 371 63 544 224 40 37 42 38 23 10 -34
-50 -146 -150 -209 -186 -130 -76 -209 -94 -464 -108 -310 -16 -473 -40 -829
-126 -102 -24 -195 -46 -207 -49 -30 -7 -42 18 -88 185 -89 322 -166 525 -311
815 -68 138 -111 237 -124 289 -34 135 -23 287 30 429 27 72 37 69 16 -4z
m4946 -75 c31 -112 31 -270 -1 -374 -12 -41 -74 -178 -136 -305 -131 -264
-187 -409 -280 -725 -37 -124 -70 -229 -75 -234 -5 -4 -109 16 -237 48 -356
86 -561 117 -881 131 -222 9 -354 52 -482 154 -55 44 -180 183 -180 199 0 4
18 -14 40 -40 52 -61 153 -139 226 -176 119 -60 180 -72 439 -88 256 -15 421
-35 685 -84 91 -16 194 -33 230 -36 108 -10 126 13 230 306 88 247 147 385
265 620 67 133 111 233 124 284 28 107 28 262 1 366 -11 41 -20 77 -19 80 0
18 32 -61 51 -126z m-5031 5 c-38 -148 -33 -290 13 -428 14 -39 58 -135 100
-213 130 -250 215 -467 306 -788 52 -183 72 -238 94 -252 21 -14 58 -8 260 41
352 86 536 114 856 131 302 15 424 58 585 208 79 73 68 46 -14 -36 -149 -150
-289 -203 -561 -217 -395 -19 -690 -72 -1032 -186 -83 -28 -153 -48 -155 -45
-3 3 -16 58 -29 123 -78 380 -156 608 -335 969 -93 186 -113 235 -129 315 -24
113 -24 151 -5 261 13 78 53 203 61 195 2 -2 -5 -37 -15 -78z m2804 60 c8 -8
-71 -88 -112 -113 -16 -9 -103 20 -103 35 0 4 12 15 28 23 15 8 45 28 67 46
33 27 45 30 75 25 19 -4 39 -11 45 -16z m2309 -146 c22 -98 21 -222 -4 -319
-13 -52 -54 -148 -119 -279 -180 -362 -280 -652 -346 -1007 -10 -54 -23 -98
-28 -98 -5 0 -91 27 -191 59 -326 105 -586 153 -931 171 -236 12 -310 27 -431
85 -92 44 -214 145 -266 219 -14 19 6 5 52 -37 164 -151 340 -217 583 -217
212 0 517 -45 845 -126 122 -30 235 -54 251 -54 15 0 35 8 44 18 8 9 34 80 57
157 126 425 177 561 326 855 76 151 109 227 124 290 24 102 26 238 5 330 -9
36 -18 74 -20 85 -3 11 3 2 14 -21 10 -22 26 -72 35 -111z m-3078 119 c12 -8
114 -165 114 -175 0 -4 -24 -7 -53 -7 l-54 0 -41 88 c-23 48 -42 91 -42 95 0
9 62 9 76 -1z m208 -68 c37 -41 67 -77 65 -78 -2 -2 -26 -8 -52 -14 l-48 -10
-37 52 c-43 58 -72 103 -72 110 0 4 12 7 65 15 6 0 41 -33 79 -75z m785 60 c5
-4 -53 -100 -82 -136 -21 -25 -24 -26 -69 -17 -27 6 -48 13 -48 15 0 3 28 38
62 79 61 73 64 75 98 69 19 -4 37 -8 39 -10z m141 3 c0 -7 -18 -50 -40 -95
l-39 -82 -56 0 c-30 0 -55 2 -55 5 0 11 112 174 123 178 25 11 67 7 67 -6z
m-3266 -137 c-18 -96 -13 -204 11 -308 10 -40 59 -153 120 -277 176 -359 260
-597 331 -940 19 -93 37 -178 40 -187 8 -28 51 -22 196 26 352 118 613 168
981 187 306 15 424 49 583 170 l69 52 -40 -43 c-48 -50 -137 -113 -208 -145
-93 -43 -167 -56 -392 -70 -267 -17 -356 -28 -548 -66 -192 -39 -360 -88 -528
-155 -74 -30 -138 -54 -142 -54 -3 0 -9 21 -12 48 -56 432 -156 749 -371 1170
-109 214 -128 288 -121 451 4 97 31 240 43 228 2 -1 -4 -41 -12 -87z m5286
-20 c20 -80 17 -231 -5 -325 -13 -56 -44 -129 -101 -241 -196 -383 -312 -723
-358 -1049 -10 -66 -20 -135 -22 -152 l-5 -33 -37 17 c-347 154 -731 242
-1152 263 -222 11 -236 13 -345 46 -106 31 -194 84 -280 168 -58 57 -62 62
-20 29 184 -145 302 -186 575 -198 380 -17 652 -68 1028 -192 153 -51 174 -55
187 -42 8 8 26 71 39 139 69 362 160 625 332 970 131 262 148 317 149 475 0
66 -3 140 -7 165 -10 59 5 32 22 -40z m-2871 -186 c22 -20 41 -40 41 -44 0 -4
-30 -15 -67 -25 l-66 -18 -38 44 c-21 24 -39 47 -39 50 0 3 26 10 58 16 31 6
60 11 63 12 4 0 25 -15 48 -35z m181 -151 c0 -15 -31 -36 -88 -59 l-44 -17
-54 54 c-30 29 -54 56 -54 59 0 4 30 15 68 26 l67 19 52 -35 c29 -19 52 -41
53 -47z m308 61 c32 -9 61 -20 65 -24 8 -7 -97 -110 -113 -110 -14 0 -140 62
-140 68 1 11 103 81 118 82 8 0 39 -7 70 -16z m-184 -742 c90 -215 229 -372
411 -463 121 -60 203 -78 415 -89 397 -22 716 -83 1016 -195 122 -45 264 -112
264 -123 0 -5 -39 -32 -87 -60 -355 -203 -1133 -651 -1363 -784 -52 -30 -216
-125 -365 -210 -148 -86 -287 -165 -307 -178 l-38 -22 1 1124 c0 640 4 1114 9
1103 5 -11 24 -57 44 -103z"/>
</g>
</svg>
